<svg class="animated" id="freepik_stories-add-files" xmlns="http://www.w3.org/2000/svg" viewBox="0 0 500 500" version="1.1" xmlns:xlink="http://www.w3.org/1999/xlink" xmlns:svgjs="http://svgjs.com/svgjs"><style>svg#freepik_stories-add-files:not(.animated) .animable {opacity: 0;}svg#freepik_stories-add-files.animated #freepik--background-simple--inject-2 {animation: 1s 1 forwards cubic-bezier(.36,-0.01,.5,1.38) slideDown,1.5s Infinite  linear floating;animation-delay: 0s,1s;}svg#freepik_stories-add-files.animated #freepik--Characters--inject-2 {animation: 1s 1 forwards cubic-bezier(.36,-0.01,.5,1.38) slideUp,6s Infinite  linear shake;animation-delay: 0s,1s;}            @keyframes slideDown {                0% {                    opacity: 0;                    transform: translateY(-30px);                }                100% {                    opacity: 1;                    transform: translateY(0);                }            }                    @keyframes floating {                0% {                    opacity: 1;                    transform: translateY(0px);                }                50% {                    transform: translateY(-10px);                }                100% {                    opacity: 1;                    transform: translateY(0px);                }            }                    @keyframes slideUp {                0% {                    opacity: 0;                    transform: translateY(30px);                }                100% {                    opacity: 1;                    transform: inherit;                }            }                    @keyframes shake {                10%, 90% {                    transform: translate3d(-1px, 0, 0);                  }                  20%, 80% {                    transform: translate3d(2px, 0, 0);                  }                  30%, 50%, 70% {                    transform: translate3d(-4px, 0, 0);                  }                  40%, 60% {                    transform: translate3d(4px, 0, 0);                  }            }        </style><g id="freepik--background-simple--inject-2" class="animable animator-active" style="transform-origin: 248.569px 241.094px;"><path d="M165.58,157.27c-8,4.74-16.23,9-24.29,13.76-37.11,21.72-67.65,50.84-71.4,95.45-2.74,32.66,7.55,70.66,36.28,89.56a66.57,66.57,0,0,0,23.32,9.57c11.72,2.39,24.13,1.45,36.09.76Z" style="fill: rgb(57, 229, 106); transform-origin: 117.522px 262.208px;" id="el04tk7mdhsptc" class="animable"></path><path d="M337.85,110.82H222.64a136.14,136.14,0,0,0-20.77,15.92H360.21A158.67,158.67,0,0,0,337.85,110.82Z" style="fill: rgb(57, 229, 106); transform-origin: 281.04px 118.78px;" id="elnlfhn9npq8" class="animable"></path><path d="M332.46,107.82a132.19,132.19,0,0,0-26.25-10.59c-27.55-7.71-54.84-2.58-78.46,10.59Z" style="fill: rgb(57, 229, 106); transform-origin: 280.105px 100.718px;" id="el4z8jhzi2oad" class="animable"></path><path d="M400,173.34a201.26,201.26,0,0,0-36.35-43.6H256.87V380.39a167.92,167.92,0,0,0,24.42,6.18c54.44,8.72,115.35-10.67,136.47-65.54C436.69,271.86,427.28,217.12,400,173.34Z" style="fill: rgb(57, 229, 106); transform-origin: 342.272px 259.156px;" id="elvngngpni5r" class="animable"></path><path d="M250.32,129.74H198.73q-3.19,3.15-6.22,6.5a101,101,0,0,1-20.38,17V366.05a204.43,204.43,0,0,1,55.5,5.5c7.69,1.84,15.19,4.3,22.69,6.74Z" style="fill: rgb(57, 229, 106); transform-origin: 211.225px 254.015px;" id="el0jfeckrx7tn7" class="animable"></path><g id="el38r5usnhyj3"><g style="opacity: 0.8; transform-origin: 248.569px 241.094px;" class="animable"><path d="M165.58,157.27c-8,4.74-16.23,9-24.29,13.76-37.11,21.72-67.65,50.84-71.4,95.45-2.74,32.66,7.55,70.66,36.28,89.56a66.57,66.57,0,0,0,23.32,9.57c11.72,2.39,24.13,1.45,36.09.76Z" style="fill: rgb(255, 255, 255); transform-origin: 117.522px 262.208px;" id="elxqalyqyxw1o" class="animable"></path><path d="M337.85,110.82H222.64a136.14,136.14,0,0,0-20.77,15.92H360.21A158.67,158.67,0,0,0,337.85,110.82Z" style="fill: rgb(255, 255, 255); transform-origin: 281.04px 118.78px;" id="elkwzzys5dyyn" class="animable"></path><path d="M332.46,107.82a132.19,132.19,0,0,0-26.25-10.59c-27.55-7.71-54.84-2.58-78.46,10.59Z" style="fill: rgb(255, 255, 255); transform-origin: 280.105px 100.718px;" id="elyz4rm1xppoq" class="animable"></path><path d="M400,173.34a201.26,201.26,0,0,0-36.35-43.6H256.87V380.39a167.92,167.92,0,0,0,24.42,6.18c54.44,8.72,115.35-10.67,136.47-65.54C436.69,271.86,427.28,217.12,400,173.34Z" style="fill: rgb(255, 255, 255); transform-origin: 342.272px 259.156px;" id="elg8uxqabeju7" class="animable"></path><path d="M250.32,129.74H198.73q-3.19,3.15-6.22,6.5a101,101,0,0,1-20.38,17V366.05a204.43,204.43,0,0,1,55.5,5.5c7.69,1.84,15.19,4.3,22.69,6.74Z" style="fill: rgb(255, 255, 255); transform-origin: 211.225px 254.015px;" id="elmlrycr469fq" class="animable"></path></g></g></g><g id="freepik--Shadow--inject-2" class="animable" style="transform-origin: 246.36px 400.03px;"><ellipse cx="246.36" cy="400.03" rx="146.99" ry="9.82" style="fill: rgb(57, 229, 106); transform-origin: 246.36px 400.03px;" id="elqpnvz6u6jch" class="animable"></ellipse><g id="el067mavcrcsf6"><ellipse cx="246.36" cy="400.03" rx="146.99" ry="9.82" style="fill: rgb(255, 255, 255); opacity: 0.5; transform-origin: 246.36px 400.03px;" class="animable"></ellipse></g></g><g id="freepik--Folders--inject-2" class="animable" style="transform-origin: 287.12px 242.375px;"><polygon points="212.44 138.29 198.37 138.29 198.37 141.36 198.37 159.39 198.37 162.46 228.21 162.46 228.21 141.36 213.44 141.36 212.44 138.29" style="fill: rgb(57, 229, 106); transform-origin: 213.29px 150.375px;" id="elydt7stuvir9" class="animable"></polygon><polygon points="212.44 184.29 198.37 184.29 198.37 187.36 198.37 205.39 198.37 208.46 228.21 208.46 228.21 187.36 213.44 187.36 212.44 184.29" style="fill: rgb(57, 229, 106); transform-origin: 213.29px 196.375px;" id="elch0uhhd271" class="animable"></polygon><polygon points="212.44 230.29 198.37 230.29 198.37 233.36 198.37 251.39 198.37 254.46 228.21 254.46 228.21 233.36 213.44 233.36 212.44 230.29" style="fill: rgb(57, 229, 106); transform-origin: 213.29px 242.375px;" id="elor6eok6elwb" class="animable"></polygon><polygon points="212.44 276.29 198.37 276.29 198.37 279.36 198.37 297.39 198.37 300.46 228.21 300.46 228.21 279.36 213.44 279.36 212.44 276.29" style="fill: rgb(57, 229, 106); transform-origin: 213.29px 288.375px;" id="elf6w0pgxug4v" class="animable"></polygon><polygon points="212.44 322.29 198.37 322.29 198.37 325.36 198.37 343.39 198.37 346.46 228.21 346.46 228.21 325.36 213.44 325.36 212.44 322.29" style="fill: rgb(57, 229, 106); transform-origin: 213.29px 334.375px;" id="elt0zswunys6" class="animable"></polygon><polygon points="302.6 138.29 288.54 138.29 288.54 141.36 288.54 159.39 288.54 162.46 318.37 162.46 318.37 141.36 303.6 141.36 302.6 138.29" style="fill: rgb(57, 229, 106); transform-origin: 303.455px 150.375px;" id="elvgjid7p196o" class="animable"></polygon><polygon points="361.1 141.36 360.1 138.29 346.04 138.29 346.04 141.36 346.04 159.39 346.04 162.46 375.87 162.46 375.87 141.36 361.1 141.36" style="fill: rgb(57, 229, 106); transform-origin: 360.955px 150.375px;" id="elgbm7tdsrigc" class="animable"></polygon><polygon points="302.6 184.29 288.54 184.29 288.54 187.36 288.54 205.39 288.54 208.46 318.37 208.46 318.37 187.36 303.6 187.36 302.6 184.29" style="fill: rgb(57, 229, 106); transform-origin: 303.455px 196.375px;" id="elq7gn3l468u" class="animable"></polygon><polygon points="360.1 230.29 346.04 230.29 346.04 233.36 346.04 251.39 346.04 254.46 375.87 254.46 375.87 233.36 361.1 233.36 360.1 230.29" style="fill: rgb(57, 229, 106); transform-origin: 360.955px 242.375px;" id="el1j4wqxhbclw" class="animable"></polygon><polygon points="360.1 184.29 346.04 184.29 346.04 187.36 346.04 205.39 346.04 208.46 375.87 208.46 375.87 187.36 361.1 187.36 360.1 184.29" style="fill: rgb(57, 229, 106); transform-origin: 360.955px 196.375px;" id="el0dnr3tebttzm" class="animable"></polygon><polygon points="302.6 230.29 288.54 230.29 288.54 233.36 288.54 251.39 288.54 254.46 318.37 254.46 318.37 233.36 303.6 233.36 302.6 230.29" style="fill: rgb(57, 229, 106); transform-origin: 303.455px 242.375px;" id="el7gjqlc0x4au" class="animable"></polygon><polygon points="302.6 276.29 288.54 276.29 288.54 279.36 288.54 297.39 288.54 300.46 318.37 300.46 318.37 279.36 303.6 279.36 302.6 276.29" style="fill: rgb(57, 229, 106); transform-origin: 303.455px 288.375px;" id="elepmquohc7g5" class="animable"></polygon><polygon points="360.1 276.29 346.04 276.29 346.04 279.36 346.04 297.39 346.04 300.46 375.87 300.46 375.87 279.36 361.1 279.36 360.1 276.29" style="fill: rgb(57, 229, 106); transform-origin: 360.955px 288.375px;" id="elckcztz44m3d" class="animable"></polygon><polygon points="302.6 322.29 288.54 322.29 288.54 325.36 288.54 343.39 288.54 346.46 318.37 346.46 318.37 325.36 303.6 325.36 302.6 322.29" style="fill: rgb(57, 229, 106); transform-origin: 303.455px 334.375px;" id="elhn9j8t0e6sl" class="animable"></polygon><polygon points="360.1 322.29 346.04 322.29 346.04 325.36 346.04 343.39 346.04 346.46 375.87 346.46 375.87 325.36 361.1 325.36 360.1 322.29" style="fill: rgb(57, 229, 106); transform-origin: 360.955px 334.375px;" id="elpxwku5hx09l" class="animable"></polygon><g id="eljhrj1uul5xa"><g style="opacity: 0.5; transform-origin: 287.12px 242.375px;" class="animable"><polygon points="212.44 138.29 198.37 138.29 198.37 141.36 198.37 159.39 198.37 162.46 228.21 162.46 228.21 141.36 213.44 141.36 212.44 138.29" style="fill: rgb(255, 255, 255); transform-origin: 213.29px 150.375px;" id="elshbljbgq8r" class="animable"></polygon><polygon points="212.44 184.29 198.37 184.29 198.37 187.36 198.37 205.39 198.37 208.46 228.21 208.46 228.21 187.36 213.44 187.36 212.44 184.29" style="fill: rgb(255, 255, 255); transform-origin: 213.29px 196.375px;" id="eldd5rqzz94o9" class="animable"></polygon><polygon points="212.44 230.29 198.37 230.29 198.37 233.36 198.37 251.39 198.37 254.46 228.21 254.46 228.21 233.36 213.44 233.36 212.44 230.29" style="fill: rgb(255, 255, 255); transform-origin: 213.29px 242.375px;" id="elhvrr01v2yhr" class="animable"></polygon><polygon points="212.44 276.29 198.37 276.29 198.37 279.36 198.37 297.39 198.37 300.46 228.21 300.46 228.21 279.36 213.44 279.36 212.44 276.29" style="fill: rgb(255, 255, 255); transform-origin: 213.29px 288.375px;" id="elqsnpzrd9a8" class="animable"></polygon><polygon points="212.44 322.29 198.37 322.29 198.37 325.36 198.37 343.39 198.37 346.46 228.21 346.46 228.21 325.36 213.44 325.36 212.44 322.29" style="fill: rgb(255, 255, 255); transform-origin: 213.29px 334.375px;" id="el6ntujv29v3v" class="animable"></polygon><polygon points="302.6 138.29 288.54 138.29 288.54 141.36 288.54 159.39 288.54 162.46 318.37 162.46 318.37 141.36 303.6 141.36 302.6 138.29" style="fill: rgb(255, 255, 255); transform-origin: 303.455px 150.375px;" id="el7vqrhl5kf1n" class="animable"></polygon><polygon points="361.1 141.36 360.1 138.29 346.04 138.29 346.04 141.36 346.04 159.39 346.04 162.46 375.87 162.46 375.87 141.36 361.1 141.36" style="fill: rgb(255, 255, 255); transform-origin: 360.955px 150.375px;" id="el1vfddotq1vs" class="animable"></polygon><polygon points="302.6 184.29 288.54 184.29 288.54 187.36 288.54 205.39 288.54 208.46 318.37 208.46 318.37 187.36 303.6 187.36 302.6 184.29" style="fill: rgb(255, 255, 255); transform-origin: 303.455px 196.375px;" id="elyu2t2nh5kpq" class="animable"></polygon><polygon points="360.1 230.29 346.04 230.29 346.04 233.36 346.04 251.39 346.04 254.46 375.87 254.46 375.87 233.36 361.1 233.36 360.1 230.29" style="fill: rgb(255, 255, 255); transform-origin: 360.955px 242.375px;" id="elb4mjjr4o05" class="animable"></polygon><polygon points="360.1 184.29 346.04 184.29 346.04 187.36 346.04 205.39 346.04 208.46 375.87 208.46 375.87 187.36 361.1 187.36 360.1 184.29" style="fill: rgb(255, 255, 255); transform-origin: 360.955px 196.375px;" id="el4y12cow7nwf" class="animable"></polygon><polygon points="302.6 230.29 288.54 230.29 288.54 233.36 288.54 251.39 288.54 254.46 318.37 254.46 318.37 233.36 303.6 233.36 302.6 230.29" style="fill: rgb(255, 255, 255); transform-origin: 303.455px 242.375px;" id="el45x4mqb10oa" class="animable"></polygon><polygon points="302.6 276.29 288.54 276.29 288.54 279.36 288.54 297.39 288.54 300.46 318.37 300.46 318.37 279.36 303.6 279.36 302.6 276.29" style="fill: rgb(255, 255, 255); transform-origin: 303.455px 288.375px;" id="elkhxx7hx3run" class="animable"></polygon><polygon points="360.1 276.29 346.04 276.29 346.04 279.36 346.04 297.39 346.04 300.46 375.87 300.46 375.87 279.36 361.1 279.36 360.1 276.29" style="fill: rgb(255, 255, 255); transform-origin: 360.955px 288.375px;" id="elbp2e24ughhj" class="animable"></polygon><polygon points="302.6 322.29 288.54 322.29 288.54 325.36 288.54 343.39 288.54 346.46 318.37 346.46 318.37 325.36 303.6 325.36 302.6 322.29" style="fill: rgb(255, 255, 255); transform-origin: 303.455px 334.375px;" id="elxd8tqbuwpr" class="animable"></polygon><polygon points="360.1 322.29 346.04 322.29 346.04 325.36 346.04 343.39 346.04 346.46 375.87 346.46 375.87 325.36 361.1 325.36 360.1 322.29" style="fill: rgb(255, 255, 255); transform-origin: 360.955px 334.375px;" id="el4djptg9avd7" class="animable"></polygon></g></g></g><g id="freepik--Characters--inject-2" class="animable" style="transform-origin: 252.859px 270.738px;"><path d="M133.47,207.05s-.9,6.17,2.08,10.39,24.72,21.9,26.66,22.92,10.28-1.16,7.76-7.9-20.83-21-24.5-24.86-7.09-3.3-7.09-3.3" style="fill: rgb(57, 229, 106); stroke: rgb(38, 50, 56); stroke-miterlimit: 10; transform-origin: 151.891px 222.435px;" id="ela1mgxrj6656" class="animable"></path><path d="M166.72,229.55s4.17.29,11.91,0,27.1.89,30.08.89h3l-.29,6.85s-14.6,1.19-24.72,2.68-18.46,3.28-26.8-.89" style="fill: rgb(57, 229, 106); stroke: rgb(38, 50, 56); stroke-linecap: round; stroke-linejoin: round; transform-origin: 185.805px 235.582px;" id="el8bymqnmg79x" class="animable"></path><path d="M211.68,230.44l.52-1.21a10.14,10.14,0,0,1,4-4.64h0a17.76,17.76,0,0,0,4.45-2l.25-.15s1.86.54.77,2a2.89,2.89,0,0,1-2.56,1.32l-1.49,2.38,10.25.83s1.48.59.29,1.48-7,.67-7,.67l7.39,1.3s.84.84.48,1.55-8.11-.24-8.11-.24l6.56,1.79a1.5,1.5,0,0,1,.47,1.79c-.23.6-1.66.36-2.26.12s-4.89-.95-4.89-.95l4.77,2.62a1.76,1.76,0,0,1-1,1.31,4,4,0,0,1-2.15,0l-6.2-2.5s-.33.83-4.93-.54Z" style="fill: rgb(255, 255, 255); stroke: rgb(38, 50, 56); stroke-linecap: round; stroke-linejoin: round; transform-origin: 220.205px 231.499px;" id="elxxczt3t8r6" class="animable"></path><path d="M217.64,228.06s.59,4.4-1.68,5.24" style="fill: rgb(255, 255, 255); stroke: rgb(38, 50, 56); stroke-linecap: round; stroke-linejoin: round; transform-origin: 216.835px 230.68px;" id="elpkv3r6hwa1" class="animable"></path><path d="M355,209.75s-.38,6.22-4.16,9.75-28.66,16.39-30.77,17-9.83-3.23-6-9.31,24.68-16.3,29.06-19.35,7.61-1.79,7.61-1.79" style="fill: rgb(57, 229, 106); stroke: rgb(38, 50, 56); stroke-miterlimit: 10; transform-origin: 334.01px 221.178px;" id="elqdlgjnsjs7" class="animable"></path><path d="M317.82,225s-4.14-.56-11.66-2.43-26.71-4.65-29.63-5.26l-2.91-.61-1.11,6.77s14,4.14,23.65,7.67,17.41,7,26.42,4.59" style="fill: rgb(57, 229, 106); stroke: rgb(38, 50, 56); stroke-linecap: round; stroke-linejoin: round; transform-origin: 297.545px 226.615px;" id="elkbqjq4e9fqa" class="animable"></path><path d="M273.62,216.69l-.26-1.29a10.15,10.15,0,0,0-3-5.36h0a18.11,18.11,0,0,1-3.95-2.9l-.2-.2s-1.94.15-1.15,1.76a2.86,2.86,0,0,0,2.23,1.81l1,2.64-10.2-1.28s-1.58.28-.59,1.39,6.69,2.07,6.69,2.07l-7.5-.22s-1,.64-.79,1.42,8,1.42,8,1.42l-6.78.41a1.51,1.51,0,0,0-.84,1.65c.12.64,1.57.69,2.2.58s5,.07,5,.07l-5.21,1.59a1.78,1.78,0,0,0,.67,1.48,4,4,0,0,0,2.1.44l6.58-1.19s.16.88,4.94.48Z" style="fill: rgb(255, 255, 255); stroke: rgb(38, 50, 56); stroke-linecap: round; stroke-linejoin: round; transform-origin: 264.745px 215.559px;" id="el97xqvvp1s2p" class="animable"></path><path d="M268.27,213.15s-1.47,4.19.57,5.47" style="fill: rgb(255, 255, 255); stroke: rgb(38, 50, 56); stroke-linecap: round; stroke-linejoin: round; transform-origin: 268.299px 215.885px;" id="elgsblonopr6o" class="animable"></path><polygon points="275.31 256.37 218.51 256.37 218.51 180.3 258.4 180.3 275.31 195.79 275.31 256.37" style="fill: rgb(255, 255, 255); stroke: rgb(38, 50, 56); stroke-linecap: round; stroke-linejoin: round; transform-origin: 246.91px 218.335px;" id="elm2kcyzrwlld" class="animable"></polygon><polygon points="258.4 180.3 258.4 195.79 275.31 195.79 258.4 180.3" style="fill: rgb(38, 50, 56); stroke: rgb(38, 50, 56); stroke-linecap: round; stroke-linejoin: round; transform-origin: 266.855px 188.045px;" id="elvd3koe6xqo" class="animable"></polygon><g id="el515d9kpgt8h"><circle cx="269.99" cy="246.55" r="15.35" style="fill: rgb(38, 50, 56); transform-origin: 269.99px 246.55px; transform: rotate(-46.62deg);" class="animable"></circle></g><polygon points="278.26 244.77 271.76 244.77 271.76 238.28 268.22 238.28 268.22 244.77 261.73 244.77 261.73 248.32 268.22 248.32 268.22 254.81 271.76 254.81 271.76 248.32 278.26 248.32 278.26 244.77" style="fill: rgb(255, 255, 255); transform-origin: 269.995px 246.545px;" id="el6rzdlh5p3ar" class="animable"></polygon><polygon points="303.13 342.58 193.84 342.58 181.24 258.35 303.13 258.35 303.13 342.58" style="fill: rgb(38, 50, 56); stroke: rgb(38, 50, 56); stroke-linecap: round; stroke-linejoin: round; transform-origin: 242.185px 300.465px;" id="elrxwu4xitwl" class="animable"></polygon><path d="M246.18,258.35l-1.64-4.72a6.45,6.45,0,0,0-6.09-4.33H194.23v93.28h109.3l12.59-84.23Z" style="fill: rgb(57, 229, 106); stroke: rgb(38, 50, 56); stroke-linecap: round; stroke-linejoin: round; transform-origin: 255.175px 295.94px;" id="elsfggv40wj8h" class="animable"></path><path d="M126.74,383.18s2.43,5.45,4.85,7.27,7,1.52,7.58,4.55-1.82,3.33-3.94,3.33-8.79,0-10-.3a37.92,37.92,0,0,1-10.61-5.76c-3.63-3-4.54-2.73-1.81-8.49S126.74,383.18,126.74,383.18Z" style="fill: rgb(57, 229, 106); stroke: rgb(38, 50, 56); stroke-miterlimit: 10; transform-origin: 125.24px 389.692px;" id="elw50dezdxyj" class="animable"></path><path d="M139.25,395.58c-2.94.52-8.7,1.23-13.77,0s-11.06-5.79-14.09-8.29c-.63,2.36.56,2.79,3.23,5A37.92,37.92,0,0,0,125.23,398c1.21.3,7.88.3,10,.3S139.44,398.06,139.25,395.58Z" style="fill: rgb(255, 255, 255); stroke: rgb(38, 50, 56); stroke-miterlimit: 10; transform-origin: 125.243px 392.795px;" id="elmxfh2c4lj8" class="animable"></path><path d="M135.83,284.2s-4.16,34.9-7.49,43.69-8.35,14.35-9.56,21-6,34.88-6,34.88,3,3,5.15,2.73,8.48.61,10.3-2.73,2.27-8.74,2.57-9.65,13-25.48,16.07-35.18,12.79-49.76,12.49-54.61" style="fill: rgb(38, 50, 56); stroke: rgb(38, 50, 56); stroke-miterlimit: 10; transform-origin: 136.073px 335.359px;" id="el46r9fpz2l27" class="animable"></path><path d="M133.61,260.26s-3.71,10.91-2.32,20.66,12.31,14.63,20,13.23,9.75-6.73,9.75-16A132.54,132.54,0,0,0,159.85,261,39.63,39.63,0,0,1,133.61,260.26Z" style="fill: rgb(38, 50, 56); stroke: rgb(38, 50, 56); stroke-miterlimit: 10; transform-origin: 146.009px 277.323px;" id="elytwn4mfd208" class="animable"></path><path d="M136.17,189.22s-7,13-7.43,23.44,4.87,47.6,4.87,47.6,2.09,4.18,12.08,4.64,14.16-3,14.16-3,3.48-23.68,3.48-36.22-9.75-31.11-9.75-31.11Z" style="fill: rgb(57, 229, 106); stroke: rgb(38, 50, 56); stroke-miterlimit: 10; transform-origin: 146.023px 227.081px;" id="eligr668agmye" class="animable"></path><path d="M130.79,218.13s.61,7.35,9.5,8.27" style="fill: none; stroke: rgb(38, 50, 56); stroke-linecap: round; stroke-linejoin: round; transform-origin: 135.54px 222.265px;" id="elo28wzrzofad" class="animable"></path><path d="M133.24,227.93A15.35,15.35,0,0,0,144,229.77" style="fill: none; stroke: rgb(38, 50, 56); stroke-linecap: round; stroke-linejoin: round; transform-origin: 138.62px 228.994px;" id="elbrgvw63841d" class="animable"></path><path d="M136.61,260.7s8.88-7.65,13.48-14.7" style="fill: none; stroke: rgb(38, 50, 56); stroke-linecap: round; stroke-linejoin: round; transform-origin: 143.35px 253.35px;" id="elflbq81eh0um" class="animable"></path><path d="M149.17,253.35s-7.66,8-10.42,8.89" style="fill: none; stroke: rgb(38, 50, 56); stroke-linecap: round; stroke-linejoin: round; transform-origin: 143.96px 257.795px;" id="el3aksym9j1fp" class="animable"></path><path d="M141.27,172s-.23,6.5-.92,10.91-.93,6.27-.93,6.27l12.77,4.87s-1.17-8.82.46-12.54a22.69,22.69,0,0,0,1.86-6.26s-4.18-10.22-8.59-10.92S141.27,172,141.27,172Z" style="fill: rgb(255, 255, 255); stroke: rgb(38, 50, 56); stroke-miterlimit: 10; transform-origin: 146.965px 179.169px;" id="ellpgogqs8rq" class="animable"></path><path d="M158.69,153.23s2.32-2.09-.7-9-17.64-6.5-24.61-.24-9.29,17.42-3.25,24.61,13.23,8.13,17.88,5.34,5.1-8.12,5.1-10.21-1.62-7.2.7-8.59A16.22,16.22,0,0,1,158.69,153.23Z" style="fill: rgb(38, 50, 56); stroke: rgb(38, 50, 56); stroke-miterlimit: 10; transform-origin: 143.099px 157.282px;" id="el9z0fqjt2esr" class="animable"></path><polygon points="134.77 189.68 155.44 198.04 154.28 191.31 135.93 183.64 134.77 189.68" style="fill: rgb(255, 255, 255); stroke: rgb(38, 50, 56); stroke-miterlimit: 10; transform-origin: 145.105px 190.84px;" id="el6rftml0ymnk" class="animable"></polygon><path d="M161.29,391.36s6.06,3.64,9.39,5.15,3.64,1.21,3.64,3.33.3,2.43-5.16,2.43-21.21.3-22.72-.91S159.17,390.45,161.29,391.36Z" style="fill: rgb(57, 229, 106); stroke: rgb(38, 50, 56); stroke-miterlimit: 10; transform-origin: 160.326px 396.801px;" id="elbabeyec2lol" class="animable"></path><path d="M169.16,402.27c5.11,0,5.17-.27,5.16-2-15.53.47-23.1-.12-26.78-.8-1,.93-1.45,1.65-1.1,1.93C148,402.57,163.71,402.27,169.16,402.27Z" style="fill: rgb(255, 255, 255); stroke: rgb(38, 50, 56); stroke-miterlimit: 10; transform-origin: 160.321px 400.887px;" id="el0kekaydb90i" class="animable"></path><path d="M158,151.6s-10.91,5.11-10.91,7,4.64,2.55,3.25,4.88A18.32,18.32,0,0,1,148,166.7s1.85,3.25.23,3.71-2.32.46-4-1.86-3.25-3.48-3.71.47,1.39,4.64,2.78,4.87a13.76,13.76,0,0,0,3.25,0s2.33,5.57,3.95,6.27,9.52,1.63,11.14-.23.47-10.22.47-10.22,2.32-.46,2.32-2.55-3.71-5.11-3.71-5.11.92-1.39.23-4.64A14.3,14.3,0,0,0,158,151.6Z" style="fill: rgb(255, 255, 255); stroke: rgb(38, 50, 56); stroke-miterlimit: 10; transform-origin: 152.439px 166.311px;" id="elt4jvmbc4xnh" class="animable"></path><path d="M158.31,163.08c0,.73-.29,1.33-.66,1.33s-.66-.6-.66-1.33.29-1.32.66-1.32S158.31,162.35,158.31,163.08Z" style="fill: rgb(38, 50, 56); transform-origin: 157.65px 163.085px;" id="elxwcuobx3ot" class="animable"></path><path d="M155.37,160.71s.34-2,3.35-1.61" style="fill: none; stroke: rgb(38, 50, 56); stroke-linecap: round; stroke-linejoin: round; transform-origin: 157.045px 159.88px;" id="elc09mxwq7esu" class="animable"></path><path d="M159.3,172.73a4.26,4.26,0,0,1-2.89-1.5" style="fill: none; stroke: rgb(38, 50, 56); stroke-linecap: round; stroke-linejoin: round; transform-origin: 157.855px 171.98px;" id="elgtnwhc8xava" class="animable"></path><path d="M134,284.8s2.12,20.91,4.84,30,2.73,13,1.82,20.91-3.94,15.15-1.82,22.42,6.37,38.38,6.37,39.59-.31,3,1.21,3.64,14.54-8.18,14.85-10-2.12-7.27-2.12-12.12,1.51-33.23,1.51-46.86,1.52-39.7-3.33-51.82" style="fill: rgb(38, 50, 56); stroke: rgb(38, 50, 56); stroke-miterlimit: 10; transform-origin: 147.649px 340.977px;" id="el2gdofejqz13" class="animable"></path><path d="M135.74,298s1.43,10.17,3.12,16.8,3.42,9.74,1.36,18-2.76,11-1.73,15.16" style="fill: none; stroke: rgb(255, 255, 255); stroke-linecap: round; stroke-linejoin: round; transform-origin: 138.45px 322.98px;" id="elegthwa0qg39" class="animable"></path><path d="M321.06,385.44s-12.4,4.14-15.35,5-5.61,1.48-2.95,4.43,15.65,3.25,19.48,3.25,6.5,2.06,7.38-.3.89-8.86.89-8.86Z" style="fill: rgb(57, 229, 106); stroke: rgb(38, 50, 56); stroke-miterlimit: 10; transform-origin: 316.088px 392.196px;" id="elmx87miko49d" class="animable"></path><path d="M330,396.41c-3.3-.1-9.53-.41-16.9-1.36a42.46,42.46,0,0,1-11.3-2.68c-.27.59,0,1.38,1,2.52,2.66,2.95,15.65,3.25,19.48,3.25s6.5,2.06,7.38-.3A8,8,0,0,0,330,396.41Z" style="fill: rgb(255, 255, 255); stroke: rgb(38, 50, 56); stroke-miterlimit: 10; transform-origin: 315.851px 395.671px;" id="elvxa9dfb3v0c" class="animable"></path><path d="M358.55,388.39s-9.45,7.09-12.1,8.56-3.25,3.84-.89,3.84,21.55.59,24.21-1.18-1.18-10.33-1.18-10.33S361.5,388.39,358.55,388.39Z" style="fill: rgb(57, 229, 106); stroke: rgb(38, 50, 56); stroke-miterlimit: 10; transform-origin: 357.397px 394.637px;" id="el77a1a9ja9ux" class="animable"></path><path d="M369.77,399.61c.75-.5,1-1.55.92-2.79a115.76,115.76,0,0,1-26,1.6c-.94,1.21-.75,2.37.91,2.37C347.92,400.79,367.11,401.38,369.77,399.61Z" style="fill: rgb(255, 255, 255); stroke: rgb(38, 50, 56); stroke-miterlimit: 10; transform-origin: 357.415px 398.852px;" id="elpkc9d8einle" class="animable"></path><path d="M335.82,251.37s-13,45.16-13.58,55.79-1.18,67.07-1.18,69.72v8.56l9.45,3.54s4.43-33.41,5.31-41.38,1.48-16.83,2.66-21,3.54-21,4.43-24.5,2.95-18.3,2.36-35.13S337.89,247.23,335.82,251.37Z" style="fill: rgb(38, 50, 56); stroke: rgb(38, 50, 56); stroke-miterlimit: 10; transform-origin: 333.217px 319.336px;" id="el9dx6wiwxxhu" class="animable"></path><path d="M334.35,248.12s.29,13.28.59,26.27-.59,32.77,2.36,46.94,14.46,44.93,15.64,49.94,5.32,18.31,5.32,18.31,6.49.59,10.33-.3c0,0-3.84-28.69-4.43-39.91s-7.68-27.16-9.15-31S358,283.84,358,283.84s7.08-13,5.31-21.26a26.75,26.75,0,0,0-6.79-13S338.77,252,334.35,248.12Z" style="fill: rgb(38, 50, 56); stroke: rgb(38, 50, 56); stroke-miterlimit: 10; transform-origin: 351.47px 318.946px;" id="el4b60smam45j" class="animable"></path><path d="M335.3,266.63s-.34,34.12,1,43.77,2.75,13.45,2.75,13.45" style="fill: none; stroke: rgb(255, 255, 255); stroke-linecap: round; stroke-linejoin: round; transform-origin: 337.156px 295.24px;" id="elut4cxtqxskr" class="animable"></path><path d="M355.89,192s-3.54-2.65-11.21,3-16.53,20.95-15.94,26.86,5.61,23.32,5.61,26.27.88,1.77,4.42,2.95,13.58.89,15.94-.29,1.18-8.86,1.77-15.35,4.43-19.19,4.14-28.34S357.07,193.21,355.89,192Z" style="fill: rgb(57, 229, 106); stroke: rgb(38, 50, 56); stroke-miterlimit: 10; transform-origin: 344.674px 221.606px;" id="elfh8pgxl1q7t" class="animable"></path><path d="M341.43,158.38s-3.54,4.43-3.54,7.38-.66,6-2.43,7.45-1.71,2.88-.23,3.18l1.48.29s.83,6.44,2,8.81,5.37.34,6.25,0-.29,8.56-.29,9.45,8.85-.3,10-.3.59-10.63,1.77-13.87,5-7.38.3-14.47S344.09,153.36,341.43,158.38Z" style="fill: rgb(255, 255, 255); stroke: rgb(38, 50, 56); stroke-miterlimit: 10; transform-origin: 346.575px 175.885px;" id="el7icanzfzcyj" class="animable"></path><path d="M340.14,171.54c0,.73.29,1.32.66,1.32s.66-.59.66-1.32-.29-1.33-.66-1.33S340.14,170.81,340.14,171.54Z" style="fill: rgb(38, 50, 56); transform-origin: 340.8px 171.535px;" id="elbizptaztz19" class="animable"></path><path d="M338.34,179s1,1.15,3.26-.39" style="fill: none; stroke: rgb(38, 50, 56); stroke-linecap: round; stroke-linejoin: round; transform-origin: 339.97px 179.011px;" id="elkl0oymbljq" class="animable"></path><path d="M339.11,167.84s1.72-2.11,3.83.58" style="fill: none; stroke: rgb(38, 50, 56); stroke-linecap: round; stroke-linejoin: round; transform-origin: 341.025px 167.737px;" id="el4a0e3fkgr0a" class="animable"></path><path d="M349.81,191.48s-7.66,2.75-8.89,4.59-2.14,4.9-.3,4.9,9.79-5.35,11.94-5.82S352.56,188.72,349.81,191.48Z" style="fill: rgb(255, 255, 255); stroke: rgb(38, 50, 56); stroke-miterlimit: 10; transform-origin: 346.506px 195.862px;" id="el6w7ajw5fv6r" class="animable"></path><path d="M341.43,158.38a26.67,26.67,0,0,0,4.72,10.92c3.84,5,7.68,3.84,6.79,8s-7.38,10-4.72,16.54,8.56,7.67,9.74,10.33,3.84,3.54.89,14.17-7.38,19.18-3.55,29.22,13.88,12.69,21.55,9.15,2.95-14.76,4.73-21.55,17.12-12.1,11.8-31-17.71-23.91-21-30.41-2.65-17.41-9.44-21.84-14.47-.59-17.12,0-4.14-3.84-9.45-1.77-8.48,12,1,14.08A20.07,20.07,0,0,1,341.43,158.38Z" style="fill: rgb(38, 50, 56); stroke: rgb(38, 50, 56); stroke-miterlimit: 10; transform-origin: 362.895px 203.893px;" id="eli0r8ucti3ek" class="animable"></path><path d="M351.19,172.52a20,20,0,0,0,6.52,4.5c11,4.82,18.61,11.72,18.61,23.43s-11,19.65-11.38,29.65,5.17,17.57,11,14.47,3.11-9.3,1-9.3" style="fill: none; stroke: rgb(255, 255, 255); stroke-linecap: round; stroke-linejoin: round; transform-origin: 365.321px 208.897px;" id="elo42vbfaw84" class="animable"></path><path d="M346,161.51a18,18,0,0,0,1.72,5.94" style="fill: none; stroke: rgb(255, 255, 255); stroke-linecap: round; stroke-linejoin: round; transform-origin: 346.86px 164.48px;" id="elepgez234kop" class="animable"></path><path d="M381.9,194.17a37.85,37.85,0,0,1,3.38,15.59c-.35,12.06-14.82,17.58-16.55,24.82-1.55,6.51,3.11,12.4,7.24,10" style="fill: none; stroke: rgb(255, 255, 255); stroke-linecap: round; stroke-linejoin: round; transform-origin: 376.853px 219.649px;" id="eld80gq3jffsc" class="animable"></path><path d="M377.7,186.32a42.42,42.42,0,0,1,2.64,4.54" style="fill: none; stroke: rgb(255, 255, 255); stroke-linecap: round; stroke-linejoin: round; transform-origin: 379.02px 188.59px;" id="elkrjxg6en7gf" class="animable"></path><path d="M361.5,209.76a22.58,22.58,0,0,0-.35-14.13c-2.76-7.24-5.86-10.69-5.86-14.48" style="fill: none; stroke: rgb(255, 255, 255); stroke-linecap: round; stroke-linejoin: round; transform-origin: 358.878px 195.455px;" id="elhp7myvs872u" class="animable"></path><path d="M341.43,158.38a6.15,6.15,0,0,0-5.09-3.08c-3.45,0-3.11,4.48.68,5.17" style="fill: none; stroke: rgb(255, 255, 255); stroke-linecap: round; stroke-linejoin: round; transform-origin: 337.691px 157.885px;" id="el0tleudduemun" class="animable"></path><path d="M138.86,201.78s-4.24,6.06-3.33,12.12,14.55,36.36,16.06,38.48,11.51,4.25,12.42-4.24-10.9-33.33-12.72-39.39-5.76-7.27-5.76-7.27" style="fill: rgb(57, 229, 106); stroke: rgb(38, 50, 56); stroke-miterlimit: 10; transform-origin: 149.731px 227.88px;" id="elptkzyksza2" class="animable"></path><path d="M161.76,241.8s8.88,1.13,15.1,4.89,26,10.8,26,10.8l-1.42,5.87s-21.77-2.51-31-4.21-15.22-2.51-18.63-7.41" style="fill: rgb(57, 229, 106); stroke: rgb(38, 50, 56); stroke-miterlimit: 10; transform-origin: 177.335px 252.58px;" id="el3yjqi3z8pbf" class="animable"></path><path d="M220.85,264.93l-8.08-2.53.09-.85s6.89,1.33,7.64,1.42,1-.28,1-.75a1.64,1.64,0,0,0-.47-.94l-11.3-4.06,6.49-1.22c.94-.75-.1-1.5-.1-1.5l-7.62.18-5.62,2.81-1.42,5.87s10.43,9,10.9,9.29.75.75,1.5.28.47-1,.47-1L211,268.51l5.74,1.69c.65.19.75.38,1.22.19s.56-1.41.56-1.41l-6.68-3.1.29-.66S219.54,267,220,267s.75,0,1.13-.84A.92.92,0,0,0,220.85,264.93Z" style="fill: rgb(255, 255, 255); stroke: rgb(38, 50, 56); stroke-linecap: round; stroke-linejoin: round; transform-origin: 211.48px 263.816px;" id="elinxnf80enyo" class="animable"></path><path d="M357.81,204.4s-4.1-5.69-9.88-2-26.74,23.11-26.74,23.11-4.24,5,2,8.66,31.84-19.1,34.61-21" style="fill: rgb(57, 229, 106); stroke: rgb(38, 50, 56); stroke-miterlimit: 10; transform-origin: 338.796px 217.861px;" id="elm1o5j907mb" class="animable"></path><path d="M325.42,225.6s-3.11-1.95-10.18-3.19-31.36-14.77-31.36-14.77l-4,5s17.09,12.57,26,17.95,12.89,6.8,15.75,6.51,9.53-6.54,9.53-6.54" style="fill: rgb(57, 229, 106); stroke: rgb(38, 50, 56); stroke-miterlimit: 10; transform-origin: 305.52px 222.388px;" id="elqw5dpa33ezh" class="animable"></path><path d="M267.11,196.81l6.46,5.15.63-.53s-4.82-4.84-5.3-5.4-.34-1,0-1.25a1.65,1.65,0,0,1,1-.13l9.42,6.93-2.54-5.91c.1-1.17,1.27-.74,1.27-.74l4,6.26,1.24,6.16-3.1,5.57s-14.27-4.85-14.75-5.07-1-.2-1.05-1.07.58-.94.58-.94l4.58.89L265.11,203c-.51-.43-.71-.4-.82-.89s.84-1.22.84-1.22l6.14,3.71.38-.59s-5.49-5-5.75-5.41-.41-.61.07-1.37A.88.88,0,0,1,267.11,196.81Z" style="fill: rgb(255, 255, 255); stroke: rgb(38, 50, 56); stroke-linecap: round; stroke-linejoin: round; transform-origin: 273.786px 203.771px;" id="el990h1usgb2d" class="animable"></path></g><defs>     <filter id="active" height="200%">         <feMorphology in="SourceAlpha" result="DILATED" operator="dilate" radius="2"></feMorphology>                <feFlood flood-color="#32DFEC" flood-opacity="1" result="PINK"></feFlood>        <feComposite in="PINK" in2="DILATED" operator="in" result="OUTLINE"></feComposite>        <feMerge>            <feMergeNode in="OUTLINE"></feMergeNode>            <feMergeNode in="SourceGraphic"></feMergeNode>        </feMerge>    </filter>    <filter id="hover" height="200%">        <feMorphology in="SourceAlpha" result="DILATED" operator="dilate" radius="2"></feMorphology>                <feFlood flood-color="#ff0000" flood-opacity="0.5" result="PINK"></feFlood>        <feComposite in="PINK" in2="DILATED" operator="in" result="OUTLINE"></feComposite>        <feMerge>            <feMergeNode in="OUTLINE"></feMergeNode>            <feMergeNode in="SourceGraphic"></feMergeNode>        </feMerge>            <feColorMatrix type="matrix" values="0   0   0   0   0                0   1   0   0   0                0   0   0   0   0                0   0   0   1   0 "></feColorMatrix>    </filter></defs></svg>